<?xml version="1.0" encoding="utf-8"?>
<!-- Generator: Adobe Illustrator 16.0.0, SVG Export Plug-In . SVG Version: 6.00 Build 0)  -->
<svg version="1.2" baseProfile="tiny" xmlns="http://www.w3.org/2000/svg" xmlns:xlink="http://www.w3.org/1999/xlink" x="0px"
	 y="0px" width="64px" height="64px" viewBox="0 0 64 64" overflow="scroll" xml:space="preserve">
<g id="Capa_2">
	<path fill="#4E4D4D" d="M39.08,47.25c-2.32,1.92-4.68,2.88-7.06,2.88c-0.14,0-0.28,0-0.42-0.01c-2.93-0.13-5.44-1.69-7.39-3.51
		c-0.15-0.32-0.32-0.61-0.49-0.86l-0.03-0.05l-2.59-4.51c1.42,2.279,5.34,7.689,10.55,7.939c3.7,0.18,7.4-2.28,11-7.3l-2.73,4.15
		L39.08,47.25z"/>
	<g>
		<path fill-rule="evenodd" fill="#4E4D4D" d="M39.92,45.98l2.73-4.15c1.75-5.09,2.01-13.44,1.09-19.93
			c-6.07-8.27-14.17-6.19-18.03-8.24l-4.42,4.1c-1.05,4.52-2.8,15.95-0.19,23.431l2.59,4.51l0.03,0.05l0.49,0.86
			c1.86,4.029,1.13,12.439-8.6,11.71c5.25-5.141,2.26-9.431,0.87-10.141c-1.39-0.72-2.58,1.53-1.69,3.75
			c-1.81-1.17-2.88-4.39-1.8-6.529c-1.51,1.909-4.01,1.47-4.72,0.35c2.53-0.33,4.76-6.58,3.15-9.83c-1.55,0.37-2.25,1.44-2.34,3.41
			c-2.06-2.83,2.26-7.98,2.43-13.36c-1.43,0.16-3.39,2.54-3.45,5.22c-1.33-3.04-1.59-4.99,1.61-8.05
			c2.19-2.11,8.35-11.41,8.73-12.03c2.96-4.95,11.38-5.3,12.33-4.87c1.36-0.52,11.12,1.53,12.58,3.68c4.19,6.2,3.141,5.32,6.87,7.78
			c3.721,2.45,5.23,4.24,5.11,6.97c-0.9-2.01-0.91-1.66-2.44-3.03c3.21,4.3,2.28,8.11,0.37,9.46c1.101-2.91,0.82-3.38-1.62-5.02
			c-0.97,3.97,1.971,7.58,0.25,11.229c4.051,5.2-0.56,10.591-1.54,13.061c-0.979,2.479-0.189,4.479,2.96,5.05
			c-4.59,4.021-14.189,2.78-14.039-4.7c0.01-0.68-0.25-2.34-0.15-3.47L39.92,45.98z"/>
	</g>
</g>
<g id="Capa_3">
	<g>
		<g>
			<path fill-rule="evenodd" fill="#4D4D4D" d="M27.397,39.675c1.232-0.334,2.519-0.425,3.999-0.695
				c0.272-0.05,0.744,0.29,1.021,0.291c0.272,0.001,0.753-0.326,1.021-0.291c1.234,0.161,2.449,0.308,3.451,0.424
				C35.068,40.413,29.686,40.524,27.397,39.675z"/>
		</g>
		<g>
			<path fill-rule="evenodd" fill="#4D4D4D" d="M27.397,39.675c2.318,2.855,7.771,2.088,9.491-0.271
				c-0.773,1.982-2.428,3.137-4.172,3.394c-0.181,0.026-0.391-0.023-0.573-0.016c-0.204,0.008-0.379,0.07-0.583,0.054
				C29.837,42.694,28.195,41.664,27.397,39.675z"/>
		</g>
	</g>
</g>
</svg>
