<?xml version="1.0" encoding="utf-8"?>
<!-- Generator: Adobe Illustrator 16.0.0, SVG Export Plug-In . SVG Version: 6.00 Build 0)  -->
<svg version="1.2" baseProfile="tiny" xmlns="http://www.w3.org/2000/svg" xmlns:xlink="http://www.w3.org/1999/xlink" x="0px"
	 y="0px" width="64px" height="64px" viewBox="0 0 64 64" overflow="scroll" xml:space="preserve">
<g id="Capa_2">
</g>
<g id="Capa_3">
	<g>
		<path fill-rule="evenodd" fill="#4E4D4D" d="M45.348,8.643c0,15.727,0,31.454,0,47.18c-0.028,0.042-0.068,0.081-0.082,0.127
			c-0.513,1.699-1.601,2.537-3.354,2.579c-1.635,0.039-3.271,0.073-4.905,0.116c-0.255,0.007-0.509,0.049-0.765,0.075
			c-2.827,0-5.656,0-8.484,0c-0.203-0.024-0.405-0.065-0.609-0.071c-1.756-0.045-3.513-0.079-5.268-0.126
			c-1.433-0.037-2.614-0.92-3.068-2.274c-0.048-0.143-0.106-0.284-0.159-0.426c0-15.727,0-31.454,0-47.18
			c0.028-0.042,0.067-0.081,0.081-0.126c0.511-1.701,1.588-2.535,3.352-2.582c1.497-0.039,2.995-0.065,4.492-0.106
			c0.429-0.012,0.856-0.055,1.284-0.083c2.827,0,5.656,0,8.484,0c0.203,0.024,0.406,0.064,0.609,0.069
			c1.739,0.045,3.478,0.074,5.216,0.128c1.388,0.044,2.538,0.915,2.994,2.227C45.222,8.33,45.286,8.486,45.348,8.643z
			 M19.987,32.391c0,6.809,0.006,13.618-0.01,20.427c-0.001,0.486,0.146,0.606,0.615,0.605c7.568-0.012,15.136-0.009,22.703-0.009
			c0.71,0,0.714-0.003,0.714-0.694c0.001-13.583-0.002-27.168,0.015-40.751c0-0.537-0.16-0.654-0.672-0.653
			c-7.568,0.016-15.136,0.011-22.703,0.011c-0.661,0-0.662,0-0.662,0.688C19.987,18.807,19.987,25.599,19.987,32.391z M32.053,8.012
			c-1.707,0-3.415,0-5.121,0c-0.139,0-0.294-0.033-0.409,0.021c-0.118,0.056-0.271,0.199-0.271,0.303
			c0.001,0.105,0.155,0.239,0.274,0.303c0.095,0.051,0.235,0.018,0.355,0.019c3.448,0,6.896,0,10.346,0
			c0.138,0,0.29,0.026,0.408-0.025c0.105-0.045,0.251-0.188,0.241-0.272c-0.015-0.119-0.133-0.265-0.245-0.324
			c-0.109-0.057-0.27-0.023-0.407-0.023C35.5,8.012,33.776,8.012,32.053,8.012z M32.11,56.204c-1.721,0-3.442,0-5.163,0.001
			c-0.138,0-0.291-0.031-0.409,0.02c-0.121,0.052-0.308,0.213-0.29,0.279c0.037,0.133,0.177,0.257,0.303,0.342
			c0.071,0.048,0.201,0.014,0.305,0.014c3.476,0,6.952,0,10.429-0.001c0.121,0,0.268,0.032,0.354-0.024
			c0.112-0.074,0.226-0.215,0.24-0.339c0.009-0.08-0.142-0.224-0.248-0.263c-0.139-0.05-0.306-0.027-0.459-0.027
			C35.484,56.204,33.797,56.204,32.11,56.204z M40.479,7.671c-0.205,0.33-0.408,0.514-0.397,0.685
			c0.009,0.148,0.285,0.414,0.398,0.392c0.179-0.034,0.423-0.253,0.443-0.419C40.944,8.176,40.708,7.99,40.479,7.671z"/>
	</g>
</g>
</svg>
