<?xml version="1.0" encoding="utf-8"?>
<!-- Generator: Adobe Illustrator 16.0.0, SVG Export Plug-In . SVG Version: 6.00 Build 0)  -->
<svg version="1.2" baseProfile="tiny" xmlns="http://www.w3.org/2000/svg" xmlns:xlink="http://www.w3.org/1999/xlink" x="0px"
	 y="0px" width="64px" height="64px" viewBox="0 0 64 64" overflow="scroll" xml:space="preserve">
<g id="Capa_2">
</g>
<g id="Capa_3">
	<path fill-rule="evenodd" fill="#4E4D4D" d="M10.92,16.069v5.17h4.75v-5.17H10.92z M28.87,34.049l2.41,2.631l2.38-2.631H28.87z
		 M34.02,27.859l-2.729,3.47l-2.83-3.479l-2.56,2.939l2.289,2.51h6.15l2.271-2.5L34.02,27.859z M34.02,27.859l-2.729,3.47
		l-2.83-3.479l-2.56,2.939l2.289,2.51h6.15l2.271-2.5L34.02,27.859z M31.28,36.68l2.38-2.631h-4.79L31.28,36.68z M10,5.789v9.28
		h6.67v7.17H10v20.5h6.71v7.16H10v8.781h42.5V5.789H10z M13.03,13.989H11.6v-6.75h1.431V13.989z M13.03,40.609H11.6v-16.75h1.431
		V40.609z M13.03,57.619H11.6v-6.75h1.431V57.619z M31.28,37.779l-6.37-6.97l3.569-4.11l2.801,3.44l2.71-3.45l3.609,4.12
		L31.28,37.779z M28.46,27.849l-2.56,2.939l2.289,2.51h6.15l2.271-2.5l-2.591-2.94l-2.729,3.47L28.46,27.849z M31.28,36.68
		l2.38-2.631h-4.79L31.28,36.68z M10.96,43.738v5.16h4.75v-5.16H10.96z M28.87,34.049l2.41,2.631l2.38-2.631H28.87z M34.02,27.859
		l-2.729,3.47l-2.83-3.479l-2.56,2.939l2.289,2.51h6.15l2.271-2.5L34.02,27.859z M34.02,27.859l-2.729,3.47l-2.83-3.479l-2.56,2.939
		l2.289,2.51h6.15l2.271-2.5L34.02,27.859z M28.87,34.049l2.41,2.631l2.38-2.631H28.87z"/>
</g>
</svg>
